<svg xmlns="http://www.w3.org/2000/svg" version="1.1" xmlns:xlink="http://www.w3.org/1999/xlink" xmlns:svgjs="http://svgjs.dev/svgjs" viewBox="0 0 800 800"><defs><linearGradient x1="50%" y1="0%" x2="50%" y2="100%" id="ffflurry-grad" gradientTransform="rotate(270)"><stop stop-color="hsl(238, 82%, 13%)" stop-opacity="1" offset="0%"></stop><stop stop-color="hsl(37, 99%, 67%)" stop-opacity="1" offset="45%"></stop><stop stop-color="hsl(316, 73%, 52%)" stop-opacity="1" offset="100%"></stop></linearGradient></defs><rect width="100%" height="100%" fill="hsl(238, 82%, 13%)"></rect><g fill="url(#ffflurry-grad)"><rect width="96" height="3" x="375" y="345.5" rx="1.5" transform="rotate(45, 423, 347)" opacity="0.43"></rect><rect width="208" height="3" x="664" y="717.5" rx="1.5" transform="rotate(45, 768, 719)" opacity="0.40"></rect><rect width="304" height="3" x="489" y="481.5" rx="1.5" transform="rotate(45, 641, 483)" opacity="0.86"></rect><rect width="72" height="3" x="264" y="230.5" rx="1.5" transform="rotate(45, 300, 232)" opacity="0.53"></rect><rect width="476" height="3" x="163" y="765.5" rx="1.5" transform="rotate(45, 401, 767)" opacity="0.37"></rect><rect width="59" height="3" x="521.5" y="175.5" rx="1.5" transform="rotate(45, 551, 177)" opacity="0.16"></rect><rect width="210" height="3" x="14" y="499.5" rx="1.5" transform="rotate(45, 119, 501)" opacity="0.95"></rect><rect width="459" height="3" x="-190.5" y="58.5" rx="1.5" transform="rotate(45, 39, 60)" opacity="0.52"></rect><rect width="128" height="3" x="61" y="309.5" rx="1.5" transform="rotate(45, 125, 311)" opacity="0.12"></rect><rect width="506" height="3" x="313" y="685.5" rx="1.5" transform="rotate(45, 566, 687)" opacity="0.58"></rect><rect width="246" height="3" x="-36" y="147.5" rx="1.5" transform="rotate(45, 87, 149)" opacity="0.19"></rect><rect width="95" height="3" x="299.5" y="709.5" rx="1.5" transform="rotate(45, 347, 711)" opacity="0.25"></rect><rect width="292" height="3" x="624" y="329.5" rx="1.5" transform="rotate(45, 770, 331)" opacity="0.24"></rect><rect width="392" height="3" x="366" y="273.5" rx="1.5" transform="rotate(45, 562, 275)" opacity="0.67"></rect><rect width="269" height="3" x="410.5" y="626.5" rx="1.5" transform="rotate(45, 545, 628)" opacity="0.29"></rect><rect width="145" height="3" x="675.5" y="459.5" rx="1.5" transform="rotate(45, 748, 461)" opacity="0.51"></rect><rect width="389" height="3" x="535.5" y="253.5" rx="1.5" transform="rotate(45, 730, 255)" opacity="0.86"></rect><rect width="272" height="3" x="71" y="80.5" rx="1.5" transform="rotate(45, 207, 82)" opacity="0.70"></rect><rect width="99" height="3" x="368.5" y="158.5" rx="1.5" transform="rotate(45, 418, 160)" opacity="0.35"></rect><rect width="364" height="3" x="479" y="23.5" rx="1.5" transform="rotate(45, 661, 25)" opacity="0.55"></rect><rect width="302" height="3" x="543" y="428.5" rx="1.5" transform="rotate(45, 694, 430)" opacity="0.32"></rect><rect width="189" height="3" x="601.5" y="344.5" rx="1.5" transform="rotate(45, 696, 346)" opacity="0.98"></rect><rect width="253" height="3" x="262.5" y="230.5" rx="1.5" transform="rotate(45, 389, 232)" opacity="0.54"></rect><rect width="535" height="3" x="-26.5" y="311.5" rx="1.5" transform="rotate(45, 241, 313)" opacity="0.59"></rect><rect width="703" height="3" x="-100.5" y="705.5" rx="1.5" transform="rotate(45, 251, 707)" opacity="0.92"></rect><rect width="496" height="3" x="119" y="86.5" rx="1.5" transform="rotate(45, 367, 88)" opacity="0.61"></rect><rect width="185" height="3" x="468.5" y="455.5" rx="1.5" transform="rotate(45, 561, 457)" opacity="0.83"></rect><rect width="338" height="3" x="44" y="403.5" rx="1.5" transform="rotate(45, 213, 405)" opacity="0.94"></rect><rect width="138" height="3" x="143" y="25.5" rx="1.5" transform="rotate(45, 212, 27)" opacity="0.31"></rect><rect width="566" height="3" x="429" y="530.5" rx="1.5" transform="rotate(45, 712, 532)" opacity="0.70"></rect><rect width="292" height="3" x="-2" y="103.5" rx="1.5" transform="rotate(45, 144, 105)" opacity="0.86"></rect><rect width="108" height="3" x="597" y="175.5" rx="1.5" transform="rotate(45, 651, 177)" opacity="0.10"></rect><rect width="216" height="3" x="641" y="105.5" rx="1.5" transform="rotate(45, 749, 107)" opacity="0.79"></rect><rect width="193" height="3" x="0.5" y="753.5" rx="1.5" transform="rotate(45, 97, 755)" opacity="0.31"></rect><rect width="70" height="3" x="607" y="651.5" rx="1.5" transform="rotate(45, 642, 653)" opacity="0.54"></rect><rect width="265" height="3" x="-13.5" y="30.5" rx="1.5" transform="rotate(45, 119, 32)" opacity="0.43"></rect><rect width="84" height="3" x="363" y="385.5" rx="1.5" transform="rotate(45, 405, 387)" opacity="0.75"></rect><rect width="222" height="3" x="596" y="627.5" rx="1.5" transform="rotate(45, 707, 629)" opacity="0.10"></rect><rect width="288" height="3" x="527" y="85.5" rx="1.5" transform="rotate(45, 671, 87)" opacity="0.44"></rect><rect width="173" height="3" x="244.5" y="336.5" rx="1.5" transform="rotate(45, 331, 338)" opacity="0.17"></rect><rect width="424" height="3" x="485" y="749.5" rx="1.5" transform="rotate(45, 697, 751)" opacity="0.22"></rect><rect width="268" height="3" x="471" y="757.5" rx="1.5" transform="rotate(45, 605, 759)" opacity="0.16"></rect><rect width="445" height="3" x="253.5" y="299.5" rx="1.5" transform="rotate(45, 476, 301)" opacity="0.12"></rect><rect width="233" height="3" x="212.5" y="157.5" rx="1.5" transform="rotate(45, 329, 159)" opacity="0.38"></rect><rect width="105" height="3" x="404.5" y="683.5" rx="1.5" transform="rotate(45, 457, 685)" opacity="0.31"></rect><rect width="573" height="3" x="86.5" y="498.5" rx="1.5" transform="rotate(45, 373, 500)" opacity="0.72"></rect><rect width="262" height="3" x="17" y="218.5" rx="1.5" transform="rotate(45, 148, 220)" opacity="0.32"></rect><rect width="272" height="3" x="325" y="607.5" rx="1.5" transform="rotate(45, 461, 609)" opacity="0.92"></rect><rect width="348" height="3" x="194" y="422.5" rx="1.5" transform="rotate(45, 368, 424)" opacity="0.38"></rect><rect width="402" height="3" x="559" y="173.5" rx="1.5" transform="rotate(45, 760, 175)" opacity="0.22"></rect><rect width="474" height="3" x="256" y="468.5" rx="1.5" transform="rotate(45, 493, 470)" opacity="0.86"></rect><rect width="63" height="3" x="248.5" y="95.5" rx="1.5" transform="rotate(45, 280, 97)" opacity="0.24"></rect><rect width="294" height="3" x="458" y="555.5" rx="1.5" transform="rotate(45, 605, 557)" opacity="0.95"></rect><rect width="252" height="3" x="318" y="426.5" rx="1.5" transform="rotate(45, 444, 428)" opacity="0.33"></rect><rect width="71" height="3" x="529.5" y="63.5" rx="1.5" transform="rotate(45, 565, 65)" opacity="0.59"></rect><rect width="228" height="3" x="667" y="495.5" rx="1.5" transform="rotate(45, 781, 497)" opacity="0.56"></rect><rect width="230" height="3" x="330" y="532.5" rx="1.5" transform="rotate(45, 445, 534)" opacity="0.57"></rect><rect width="597" height="3" x="-168.5" y="404.5" rx="1.5" transform="rotate(45, 130, 406)" opacity="0.68"></rect><rect width="523" height="3" x="-42.5" y="153.5" rx="1.5" transform="rotate(45, 219, 155)" opacity="0.25"></rect><rect width="464" height="3" x="161" y="615.5" rx="1.5" transform="rotate(45, 393, 617)" opacity="0.16"></rect><rect width="381" height="3" x="-144.5" y="275.5" rx="1.5" transform="rotate(45, 46, 277)" opacity="0.90"></rect><rect width="368" height="3" x="295" y="213.5" rx="1.5" transform="rotate(45, 479, 215)" opacity="0.67"></rect><rect width="240" height="3" x="645" y="401.5" rx="1.5" transform="rotate(45, 765, 403)" opacity="0.23"></rect><rect width="42" height="3" x="607" y="304.5" rx="1.5" transform="rotate(45, 628, 306)" opacity="0.64"></rect><rect width="251" height="3" x="384.5" y="754.5" rx="1.5" transform="rotate(45, 510, 756)" opacity="0.27"></rect><rect width="551" height="3" x="-169.5" y="657.5" rx="1.5" transform="rotate(45, 106, 659)" opacity="0.56"></rect><rect width="231" height="3" x="106.5" y="231.5" rx="1.5" transform="rotate(45, 222, 233)" opacity="0.77"></rect><rect width="294" height="3" x="143" y="445.5" rx="1.5" transform="rotate(45, 290, 447)" opacity="0.83"></rect><rect width="238" height="3" x="177" y="28.5" rx="1.5" transform="rotate(45, 296, 30)" opacity="0.57"></rect><rect width="83" height="3" x="339.5" y="22.5" rx="1.5" transform="rotate(45, 381, 24)" opacity="0.71"></rect><rect width="319" height="3" x="355.5" y="367.5" rx="1.5" transform="rotate(45, 515, 369)" opacity="0.70"></rect><rect width="201" height="3" x="509.5" y="390.5" rx="1.5" transform="rotate(45, 610, 392)" opacity="0.64"></rect><rect width="458" height="3" x="92" y="575.5" rx="1.5" transform="rotate(45, 321, 577)" opacity="0.48"></rect><rect width="312" height="3" x="-113" y="565.5" rx="1.5" transform="rotate(45, 43, 567)" opacity="0.73"></rect><rect width="123" height="3" x="456.5" y="560.5" rx="1.5" transform="rotate(45, 518, 562)" opacity="0.47"></rect><rect width="253" height="3" x="-87.5" y="401.5" rx="1.5" transform="rotate(45, 39, 403)" opacity="0.73"></rect><rect width="608" height="3" x="-89" y="555.5" rx="1.5" transform="rotate(45, 215, 557)" opacity="0.53"></rect><rect width="288" height="3" x="624" y="591.5" rx="1.5" transform="rotate(45, 768, 593)" opacity="0.11"></rect><rect width="471" height="3" x="523.5" y="34.5" rx="1.5" transform="rotate(45, 759, 36)" opacity="0.28"></rect><rect width="351" height="3" x="220.5" y="284.5" rx="1.5" transform="rotate(45, 396, 286)" opacity="0.12"></rect><rect width="105" height="3" x="-20.5" y="187.5" rx="1.5" transform="rotate(45, 32, 189)" opacity="0.71"></rect><rect width="376" height="3" x="278" y="64.5" rx="1.5" transform="rotate(45, 466, 66)" opacity="0.74"></rect></g></svg>